<svg width="21" height="16" viewBox="0 0 21 16" fill="none" xmlns="http://www.w3.org/2000/svg">
<path d="M16.8269 11.7796C16.2159 13.1836 15.1614 14.3485 13.8249 15.0959C12.4885 15.8432 10.9439 16.1318 9.42784 15.9173C7.91175 15.7028 6.5078 14.9972 5.43113 13.9084C4.35446 12.8197 3.66446 11.408 3.46687 9.88962C2.51346 9.66129 1.67709 9.09078 1.11661 8.28643C0.556126 7.48207 0.310557 6.49989 0.426536 5.5264C0.542516 4.55291 1.01197 3.65592 1.74574 3.00576C2.47951 2.3556 3.4265 1.99755 4.40687 1.99962C4.67209 1.99962 4.92644 2.10497 5.11398 2.29251C5.30152 2.48005 5.40687 2.7344 5.40687 2.99962C5.40687 3.26483 5.30152 3.51919 5.11398 3.70672C4.92644 3.89426 4.67209 3.99962 4.40687 3.99962C3.87644 3.99962 3.36773 4.21033 2.99266 4.5854C2.61759 4.96048 2.40687 5.46918 2.40687 5.99962C2.40687 6.53005 2.61759 7.03876 2.99266 7.41383C3.36773 7.7889 3.87644 7.99962 4.40687 7.99962C4.67209 7.99962 4.92644 8.10497 5.11398 8.29251C5.30152 8.48005 5.40687 8.7344 5.40687 8.99962C5.40943 10.1823 5.83116 11.3259 6.59714 12.227C7.36313 13.1282 8.42376 13.7287 9.59062 13.9217C10.7575 14.1148 11.955 13.888 12.9704 13.2816C13.9859 12.6752 14.7535 11.7285 15.1369 10.6096C15.194 10.4378 15.2968 10.2847 15.4342 10.1667C15.5715 10.0487 15.7384 9.9702 15.9169 9.93962C16.5829 9.81375 17.1867 9.46601 17.6299 8.95308C18.0731 8.44015 18.3294 7.79226 18.3573 7.11498C18.3851 6.43769 18.1827 5.77095 17.7832 5.22338C17.3836 4.67582 16.8104 4.27972 16.1569 4.09962C15.8996 4.03331 15.6792 3.86753 15.5442 3.63873C15.4092 3.40994 15.3706 3.13688 15.4369 2.87962C15.5032 2.62236 15.669 2.40197 15.8978 2.26695C16.1265 2.13192 16.3996 2.09331 16.6569 2.15962C17.7093 2.43771 18.6422 3.05163 19.3139 3.90815C19.9856 4.76468 20.3595 5.81701 20.3787 6.90535C20.3979 7.99369 20.0615 9.05857 19.4204 9.9383C18.7794 10.818 17.8688 11.4645 16.8269 11.7796ZM11.1169 9.70962C11.0218 9.80066 10.9096 9.87202 10.7869 9.91962C10.5434 10.0196 10.2703 10.0196 10.0269 9.91962C9.90412 9.87202 9.79198 9.80066 9.69687 9.70962L6.69687 6.70962C6.50857 6.52131 6.40278 6.26592 6.40278 5.99962C6.40278 5.73331 6.50857 5.47792 6.69687 5.28962C6.88518 5.10131 7.14057 4.99553 7.40687 4.99553C7.67317 4.99553 7.92857 5.10131 8.11687 5.28962L9.40687 6.58962V0.999617C9.40687 0.7344 9.51223 0.480045 9.69977 0.292509C9.8873 0.104973 10.1417 -0.000383377 10.4069 -0.000383377C10.6721 -0.000383377 10.9264 0.104973 11.114 0.292509C11.3015 0.480045 11.4069 0.7344 11.4069 0.999617V6.58962L12.6969 5.28962C12.7898 5.19589 12.9004 5.12149 13.0223 5.07073C13.1442 5.01996 13.2749 4.99382 13.4069 4.99382C13.5389 4.99382 13.6696 5.01996 13.7914 5.07073C13.9133 5.12149 14.0239 5.19589 14.1169 5.28962C14.2106 5.38258 14.285 5.49318 14.3358 5.61504C14.3865 5.7369 14.4127 5.86761 14.4127 5.99962C14.4127 6.13163 14.3865 6.26233 14.3358 6.38419C14.285 6.50605 14.2106 6.61665 14.1169 6.70962L11.1169 9.70962Z" fill="#A6CE39"/>
</svg>
